<svg clip-rule="evenodd" fill-rule="evenodd" height="24" width="24" xmlns="http://www.w3.org/2000/svg"><path d="m3 24h19v-23h-1v22h-18zm17-24h-18v22h18zm-1 1h-16v20h16zm-2 16h-12v1h12zm0-3h-12v1h12zm0-3h-12v1h12zm-7.348-3.863.948.3c-.145.529-.387.922-.725 1.178-.338.257-.767.385-1.287.385-.643 0-1.171-.22-1.585-.659s-.621-1.04-.621-1.802c0-.806.208-1.432.624-1.878s.963-.669 1.642-.669c.592 0 1.073.175 1.443.525.221.207.386.505.496.892l-.968.231c-.057-.251-.177-.449-.358-.594-.182-.146-.403-.218-.663-.218-.359 0-.65.129-.874.386-.223.258-.335.675-.335 1.252 0 .613.11 1.049.331 1.308.22.26.506.39.858.39.26 0 .484-.082.671-.248.187-.165.322-.425.403-.779zm3.023 1.78-1.731-4.842h1.06l1.226 3.584 1.186-3.584h1.037l-1.734 4.842z"/></svg>